<?xml version="1.0" encoding="utf-8"?>
<!-- Generator: Adobe Illustrator 25.0.1, SVG Export Plug-In . SVG Version: 6.00 Build 0)  -->
<svg version="1.1" id="Warstwa_1" xmlns="http://www.w3.org/2000/svg" xmlns:xlink="http://www.w3.org/1999/xlink" x="0px" y="0px"
	 viewBox="0 0 200 100" style="enable-background:new 0 0 200 100;" xml:space="preserve">
<style type="text/css">
	.st0{fill:#1A263C;stroke:#20E9B6;stroke-miterlimit:10;}
	.st1{fill:#1A263C;stroke:#20E9B6;stroke-width:0.25;stroke-miterlimit:10;}
</style>
<path class="st0" d="M194.02,100H6c-3.31,0-6-2.69-6-6V6.65c0-3.31,2.67-5.99,5.98-6l188.04-0.63c3.3-0.01,5.98,2.66,5.98,5.96
	v88.04C200,97.32,197.32,100,194.02,100z"/>
<path class="st0" d="M145,82.91H55c-2.76,0-5-2.24-5-5V22.07c0-2.75,2.23-4.98,4.98-4.98H145c2.76,0,5,2.24,5,5v55.81
	C150,80.67,147.76,82.91,145,82.91z"/>
<circle class="st0" cx="24.65" cy="45.78" r="14.08"/>
<circle class="st0" cx="24.65" cy="45.78" r="1.28"/>
<path class="st0" d="M24.65,42.67"/>
<line class="st0" x1="24.65" y1="35.42" x2="24.65" y2="42.42"/>
<line class="st0" x1="21.25" y1="45.78" x2="14.25" y2="45.78"/>
<line class="st0" x1="24.65" y1="48.83" x2="24.65" y2="55.83"/>
<line class="st0" x1="28.09" y1="45.78" x2="35.09" y2="45.78"/>
<line class="st0" x1="9.43" y1="76.33" x2="17.02" y2="66.89"/>
<line class="st0" x1="13.23" y1="76.33" x2="20.82" y2="66.89"/>
<line class="st0" x1="17.02" y1="76.33" x2="24.61" y2="66.89"/>
<line class="st0" x1="20.82" y1="76.33" x2="28.41" y2="66.89"/>
<line class="st0" x1="24.3" y1="76.33" x2="31.89" y2="66.89"/>
<line class="st0" x1="28.09" y1="76.33" x2="35.68" y2="66.89"/>
<circle class="st0" cx="165.92" cy="57.33" r="5"/>
<circle class="st0" cx="185.2" cy="42.42" r="5"/>
<path class="st0" d="M170.95,23.28h-8c-0.55,0-1-0.45-1-1v-2c0-0.55,0.45-1,1-1h8c0.55,0,1,0.45,1,1v2
	C171.95,22.83,171.5,23.28,170.95,23.28z"/>
<path class="st0" d="M188.12,23.28h-8c-0.55,0-1-0.45-1-1v-2c0-0.55,0.45-1,1-1h8c0.55,0,1,0.45,1,1v2
	C189.12,22.83,188.67,23.28,188.12,23.28z"/>
<g>
	<g>
		<path class="st1" d="M95.41,36.96c0.47-2.17,1.1-5.11,1.5-6.83h-0.07c-0.88,2.8-2.65,8.34-3.65,11.29h-2.22
			c0.33-3.06,0.95-8.71,1.24-11.33h-0.09c-0.32,1.65-0.94,4.55-1.43,6.96l-0.87,4.36h-2.44l2.97-14.01h3.84
			c-0.29,3.05-0.61,6.24-0.86,8.17h0.05c0.65-2.03,1.78-5.35,2.79-8.17h3.84l-2.97,14.01h-2.58L95.41,36.96z"/>
		<path class="st1" d="M101.94,38l-1.05,3.42H98.1l4.85-14.01h4.08l-1.05,14.01h-2.66l0.31-3.42H101.94z M103.88,35.68
			c0.17-1.66,0.45-4.6,0.56-5.91h-0.11c-0.27,1.06-1.13,4.1-1.68,5.91H103.88z"/>
		<path class="st1" d="M111.21,38.02c-0.46,2.11-0.72,3.58-3.39,3.58c-0.46,0-1.15-0.08-1.48-0.15l0.48-2.19
			c0.19,0.04,0.45,0.06,0.68,0.06c0.66,0,0.83-0.2,0.99-0.99l2.32-10.92h2.65L111.21,38.02z"/>
		<path class="st1" d="M85.17,66.62h-2.03c0-0.24,0.06-0.68,0.12-0.99c-0.59,0.93-1.51,1.2-2.26,1.2c-2.17,0-2.5-1.73-2.02-4.01
			l1.36-6.43c0.5-2.37,1.3-4.02,4-4c3.21,0.03,3.32,2.29,2.99,3.86l-0.09,0.44h-2.69l0.15-0.76c0.15-0.82,0.1-1.36-0.56-1.36
			c-0.49,0-0.78,0.25-1.03,1.47l-1.49,7.07c-0.22,1.02-0.11,1.55,0.51,1.55c0.66,0,0.94-0.52,1.22-1.84l0.39-1.88H82.8l0.49-2.24
			h3.58L85.17,66.62z"/>
		<path class="st1" d="M89.96,63.2l-1.05,3.42h-2.79l4.85-14.01h4.08L94,66.62h-2.66l0.31-3.42H89.96z M91.9,60.88
			c0.17-1.66,0.45-4.6,0.56-5.91h-0.11c-0.27,1.06-1.13,4.1-1.68,5.91H91.9z"/>
		<path class="st1" d="M103,62.16c0.47-2.17,1.1-5.11,1.5-6.83h-0.07c-0.88,2.8-2.65,8.34-3.65,11.29h-2.22
			c0.33-3.06,0.95-8.71,1.24-11.33h-0.09c-0.32,1.64-0.94,4.55-1.43,6.96l-0.87,4.36h-2.44l2.97-14.01h3.84
			c-0.29,3.05-0.61,6.24-0.86,8.17h0.05c0.65-2.03,1.78-5.35,2.8-8.17h3.84l-2.97,14.01h-2.58L103,62.16z"/>
		<path class="st1" d="M113.15,60.39h-2.89l-0.81,3.93h3.49l-0.79,2.3h-5.85l2.97-14.01h5.7l-0.5,2.31h-3.05l-0.68,3.16h2.89
			L113.15,60.39z"/>
		<path class="st1" d="M116.46,62.59l-0.13,0.67c-0.17,0.96-0.05,1.47,0.61,1.47c0.57,0,0.85-0.44,1.04-1.38
			c0.22-1.15,0.03-1.85-1.16-3.21c-1.42-1.63-1.99-2.54-1.58-4.68c0.4-2.08,1.53-3.05,3.46-3.05c3.07,0,3.28,2.13,2.94,3.92
			l-0.06,0.3h-2.54l0.11-0.52c0.17-0.92,0.15-1.56-0.49-1.56c-0.43,0-0.72,0.26-0.85,0.99c-0.18,0.98-0.01,1.43,0.94,2.56
			c1.87,2.19,2.29,3.29,1.85,5.46c-0.48,2.28-1.63,3.3-3.9,3.3c-2.62,0-3.44-1.53-2.94-3.91l0.07-0.33H116.46z"/>
	</g>
</g>
</svg>
