<?xml version="1.0" encoding="utf-8"?>
<!-- Generator: Adobe Illustrator 25.0.1, SVG Export Plug-In . SVG Version: 6.00 Build 0)  -->
<svg version="1.1" id="Warstwa_1" xmlns="http://www.w3.org/2000/svg" xmlns:xlink="http://www.w3.org/1999/xlink" x="0px" y="0px"
	 viewBox="0 0 200 100" style="enable-background:new 0 0 200 100;" xml:space="preserve">
<style type="text/css">
	.st0{fill:#1A263C;stroke:#20E9B6;stroke-width:2;stroke-miterlimit:10;}
	.st1{fill:#1A263C;stroke:#20E9B6;stroke-miterlimit:10;}
	.st2{fill:none;stroke:#20E9B6;stroke-width:2;stroke-miterlimit:10;}
</style>
<path class="st0" d="M194,100H6c-3.3,0-6-2.7-6-6V6.7c0-3.3,2.7-6,6-6L194,0c3.3,0,6,2.7,6,6v88C200,97.3,197.3,100,194,100z"/>
<path class="st0" d="M145,82.9H55c-2.8,0-5-2.2-5-5V22.1c0-2.8,2.2-5,5-5h90c2.8,0,5,2.2,5,5v55.8C150,80.7,147.8,82.9,145,82.9z"/>
<circle class="st0" cx="24.6" cy="45.8" r="14.1"/>
<circle class="st1" cx="24.6" cy="45.8" r="1.3"/>
<path class="st1" d="M24.6,42.7"/>
<line class="st2" x1="24.6" y1="35.4" x2="24.6" y2="42.4"/>
<line class="st2" x1="21.2" y1="45.8" x2="14.2" y2="45.8"/>
<line class="st2" x1="24.6" y1="48.8" x2="24.6" y2="55.8"/>
<line class="st2" x1="28.1" y1="45.8" x2="35.1" y2="45.8"/>
<line class="st2" x1="9.4" y1="76.3" x2="17" y2="66.9"/>
<line class="st2" x1="13.2" y1="76.3" x2="20.8" y2="66.9"/>
<line class="st2" x1="17" y1="76.3" x2="24.6" y2="66.9"/>
<line class="st2" x1="20.8" y1="76.3" x2="28.4" y2="66.9"/>
<line class="st2" x1="24.3" y1="76.3" x2="31.9" y2="66.9"/>
<line class="st2" x1="28.1" y1="76.3" x2="35.7" y2="66.9"/>
<circle class="st0" cx="165.9" cy="57.3" r="5"/>
<circle class="st0" cx="185.2" cy="42.4" r="5"/>
<path class="st0" d="M170.9,23.3h-8c-0.6,0-1-0.5-1-1v-2c0-0.5,0.4-1,1-1h8c0.6,0,1,0.5,1,1v2C171.9,22.8,171.5,23.3,170.9,23.3z"/>
<path class="st0" d="M188.1,23.3h-8c-0.6,0-1-0.5-1-1v-2c0-0.5,0.4-1,1-1h8c0.6,0,1,0.5,1,1v2C189.1,22.8,188.7,23.3,188.1,23.3z"/>
</svg>
